<?xml version="1.0" encoding="UTF-8"?>
<mxfile host="app.diagrams.net" modified="2025-10-23T11:04:39.261497Z" agent="python-user-visible" version="22.1.0" type="device">

  <diagram id="SecOps_Telemetry_v1" name="SecOps_Telemetry_v1">
    <mxGraphModel dx="1280" dy="720" grid="1" gridSize="10" guides="1" tooltips="1" connect="1" arrows="1" fold="1" page="1" pageScale="1" pageWidth="1920" pageHeight="1080" background="#ffffff">
      <root>
        <mxCell id="0"/><mxCell id="1" parent="0"/>
        <mxCell id="zoneSec" value="SecOps: Logging, Detection &amp; Response" style="rounded=1;whiteSpace=wrap;html=1;strokeColor:#ad1457;fillColor:#fce4ec;" vertex="1" parent="1"><mxGeometry x="40" y="40" width="940" height="420" as="geometry"/></mxCell><mxCell id="siem" value="SIEM / MDR" style="shape=process;whiteSpace=wrap;html=1;strokeColor:#0d47a1;fillColor:#e3f2fd;" vertex="1" parent="1"><mxGeometry x="80" y="80" width="260" height="60" as="geometry"/></mxCell><mxCell id="idplogs" value="IdP/SSO Logs" style="shape=process;whiteSpace=wrap;html=1;strokeColor:#6a1b9a;fillColor:#ead7f7;" vertex="1" parent="1"><mxGeometry x="80" y="180" width="200" height="50" as="geometry"/></mxCell><mxCell id="edrlogs" value="EDR Alerts" style="shape=process;whiteSpace=wrap;html=1;strokeColor:#2e7d32;fillColor:#d9f1dc;" vertex="1" parent="1"><mxGeometry x="300" y="180" width="200" height="50" as="geometry"/></mxCell><mxCell id="fwlogs" value="NGFW/DNS Logs" style="shape=process;whiteSpace=wrap;html=1;strokeColor:#ef6c00;fillColor:#ffe0b2;" vertex="1" parent="1"><mxGeometry x="520" y="180" width="200" height="50" as="geometry"/></mxCell><mxCell id="saaslogs" value="SaaS Audit Logs" style="shape=process;whiteSpace=wrap;html=1;strokeColor:#6a1b9a;fillColor:#ead7f7;" vertex="1" parent="1"><mxGeometry x="740" y="180" width="200" height="50" as="geometry"/></mxCell><mxCell id="oncall" value="Onâ€‘call / IR Runbooks" style="shape=process;whiteSpace=wrap;html=1;strokeColor:#0d47a1;fillColor:#e3f2fd;" vertex="1" parent="1"><mxGeometry x="360" y="300" width="260" height="60" as="geometry"/></mxCell><mxCell id="sec1" edge="1" parent="1" source="idplogs" target="siem" value="8" style="dashed=1;dashPattern=1 4;endArrow=classic;strokeColor=#ad1457;"><mxGeometry relative="1" as="geometry"/></mxCell><mxCell id="sec2" edge="1" parent="1" source="edrlogs" target="siem" value="8" style="dashed=1;dashPattern=1 4;endArrow=classic;strokeColor=#ad1457;"><mxGeometry relative="1" as="geometry"/></mxCell><mxCell id="sec3" edge="1" parent="1" source="fwlogs" target="siem" value="8" style="dashed=1;dashPattern=1 4;endArrow=classic;strokeColor=#ad1457;"><mxGeometry relative="1" as="geometry"/></mxCell><mxCell id="sec4" edge="1" parent="1" source="saaslogs" target="siem" value="8" style="dashed=1;dashPattern=1 4;endArrow=classic;strokeColor=#ad1457;"><mxGeometry relative="1" as="geometry"/></mxCell><mxCell id="sec5" edge="1" parent="1" source="siem" target="oncall" value="9" style="dashed=1;endArrow=classic;strokeColor=#ad1457;"><mxGeometry relative="1" as="geometry"/></mxCell>
      </root>
    </mxGraphModel>
  </diagram>

</mxfile>
